<?xml version="1.0" encoding="UTF-8" standalone="no"?>
<svg xmlns="http://www.w3.org/2000/svg" height="848px" width="1.11e3px" version="1.1" xmlns:xlink="http://www.w3.org/1999/xlink" viewBox="0 0 1110 848">
<path d="m341 0h-289c-6.3 0-10.4 4.27-10.4 10.7v181h-31c-6.18 0-10.3 4-10.3 11l-0.011 405c0 30 22.7 53 51.6 53h289c29 0 51-23 51-53v-405c0-7-4-11-10-11h-31v-181c0-6.73-4-11-10-11zm-279 192h268v-171l-268 0.3 0.2 171zm310 416c0 18-14 32-31 32h-289c-17.6 0-31.1-14-31.1-32v-395h351v395zm-238-544c-6 0-10 4.2-10 10.7v64.3c0 6 4 10 10 10 7 0 11-4 11-10v-64.3c0-6.5-4-10.7-11-10.7zm124 0c-6 0-10 4.2-10 10.7v64.3c0 6 4 10 10 10s11-4 11-10v-64.3c0-6.5-5-10.7-11-10.7zm41 256h-206c-6 0-10.2 4-10.2 11v170c0 7 4.2 11 10.3 11h206c7 0 11-4 11-11v-170c0-7-4-11-11-11zm-196 171h186v-150h-186v150zm52-64h83c6 0 10-5 10-11s-4-11-10-11h-83c-6 0-10 5-10 11s4 11 10 11z"
fill-rule="evenodd"  stroke="#403943" stroke-width="26" fill="#403943" transform="translate(362 103)"/>
</svg>