<?xml version="1.0" encoding="UTF-8" standalone="no"?>
<svg xmlns="http://www.w3.org/2000/svg" height="848px" width="1.11e3px" version="1.1" xmlns:xlink="http://www.w3.org/1999/xlink" viewBox="0 0 1110 848">
<g fill="#403943" transform="translate(90 133)">
<path d="m135 605h366-2 2c5 0 11 0 17-1 11-1 21-4 31-8 33-14 55-43 55-86 0-42-21-72-54-87-11-4-22-7-33-9-7-1-12-1-16-1h-1 1-369-2-4c-3-1-6-1-9-1-8-2-16-4-23.8-8-10.1-6-18.4-13-24.6-24-8-14-12.5-33-12.5-58 0-24 4.9-44 13.8-59 7.2-12 17.1-21 29.1-28 10-6 20-10 31-12 4-1 7-1 10-2h2 1-1 323c17 0 30-15 28-32v-1c-1-5-1-14 1-23 3-14 9-27 19-40 13-17 30-30.8 55-42.5 7-3.7 15-6.9 23-9.8 28-10 57-15.2 88-16.4 24-0.9 46 0.7 67 3.8 6 0.9 11 1.8 15 2.7 1 0.3 3 0.6 4 0.8 0 0.2 1 0.2 1 0.3l-21-27.1v296l21-27h-1c-1 1-3 1-4 1-5 1-10 2-17 3-38 5-80 6-123-1-75-13-128-62-128-116 0-15-13-28-28-28-16 0-28 13-28 28 0 84 75 155 174 171 50 8 98 8 141 1 7-1 14-2 20-3 2 0 3-1 5-1 1 0 2 0 2-1 13-3 22-14 22-27v-296c0-13-9-24.1-21-27.3-1-0.15-1-0.33-2-0.56-2-0.35-4-0.73-6-1.13-5-1.12-11-2.23-18-3.27-23-3.61-49-5.4-77-4.38-36 1.35-72 7.56-105 19.7-10 3.5-20 7.5-29 11.9-32 15.6-57 35.5-74 58.7-15 20.3-25 41.3-29 62.3-4 15-4 29-3 40v4l28-32h-323-1-3c-1 0-3 1-4 1-5 0-10 1-16 2-16 4-32.1 10-47.2 19-20 11-36.8 27-49.1 48-14.1 24-21.6 53-21.6 87-0.0141 65 24.9 109 66.6 131 13.3 7 27.3 12 41.3 14 9 1 18 2 24 2h2-2 369 2 6c6 1 12 3 18 5 13 7 21 17 21 36 0 20-7 29-20 34-5 2-11 4-16 4-2 0-4 1-6 1h-3c-1 0-1 0 0 0h-2-366c-16 0-28 12-28 28 0 15 12 28 28 28z"/>
<path d="m777 176h126c16 0 28-13 28-28s-12-28-28-28h-126c-15 0-28 13-28 28s13 28 28 28z"/>
<path d="m777 296h126c16 0 28-13 28-28s-12-28-28-28h-126c-15 0-28 13-28 28s13 28 28 28z"/>
</g>
</svg>