<?xml version="1.0" encoding="UTF-8" standalone="no"?>
<svg xmlns="http://www.w3.org/2000/svg" height="848px" width="1.11e3px" version="1.1" xmlns:xlink="http://www.w3.org/1999/xlink" viewBox="0 0 1110 848">
<path d="m296 528c0 52 44 94 98 94s97-42 97-94c0-53-43-95-97-95s-98 42-98 95zm168 0c0 37-31 67-70 67s-70-30-70-67c0-38 31-68 70-68s70 30 70 68zm147-198c4 0 7-1 10-4 5-5 5-13 0-19-61-58-142-90-227-90s-166 32-227 90c-6 6-6 14 0 19 5 6 14 6 19 0 56-54 128-84 206-84 79 0 152 30 207 84 4 3 8 4 12 4zm172-154c5-5 5-13 0-19-103-101-241-157-389-157-148 0.436-286 55.9-389 157-5.51 6-5.51 14 0.05 19 5.55 6 14 6 19.6 0 99.4-95.8 230-148 369-148 139-0.5 270 52.2 369 148 3 3 7 4 10 4s7-1 10-4z"
stroke="#403943" stroke-width="32" fill="#403943" transform="translate(158 142)"/>
</svg>
